<?xml version="1.0" encoding="UTF-8"?><svg id="Layer_1" xmlns="http://www.w3.org/2000/svg" viewBox="0 0 68 70.5"><defs><style>.cls-1{fill:#fff;}</style></defs><path class="cls-1" d="M55.88,2.42c.23-1.08-.46-2.14-1.54-2.37-1.08-.23-2.14.46-2.37,1.54l-14,66c-.23,1.08.46,2.14,1.54,2.37,1.08.23,2.14-.46,2.37-1.54L55.88,2.42"/><path class="cls-1" d="M8.04,20.59c-1.1-.02-2.02.86-2.03,1.97s.86,2.02,1.97,2.03l58,1c1.1.02,2.02-.86,2.03-1.97.02-1.1-.86-2.02-1.97-2.03l-58-1"/><path class="cls-1" d="M2.03,46.59c-1.1-.02-2.01.86-2.03,1.97-.02,1.1.86,2.01,1.97,2.03l59,1c1.1.02,2.01-.86,2.03-1.97.02-1.1-.86-2.01-1.97-2.03l-59-1"/><path class="cls-1" d="M30.14,2.91c.23-1.08-.46-2.14-1.54-2.37-1.08-.23-2.14.46-2.37,1.54l-14,66c-.23,1.08.46,2.14,1.54,2.37,1.08.23,2.14-.46,2.37-1.54L30.14,2.91"/></svg>