<?xml version="1.0" encoding="UTF-8"?><svg id="Layer_1" xmlns="http://www.w3.org/2000/svg" viewBox="0 0 121 121"><defs><style>.cls-1{fill:#fff;}</style></defs><path class="cls-1" d="M109,5c3.86,0,7,3.14,7,7v97c0,3.86-3.14,7-7,7H12c-3.86,0-7-3.14-7-7V12c0-3.86,3.14-7,7-7h97M109,0H12C5.4,0,0,5.4,0,12v97c0,6.6,5.4,12,12,12h97c6.6,0,12-5.4,12-12V12c0-6.6-5.4-12-12-12h0Z"/><path class="cls-1" d="M60,43c12.68,0,23,10.32,23,23s-10.32,23-23,23-23-10.32-23-23,10.32-23,23-23M60,32c-18.78,0-34,15.22-34,34s15.22,34,34,34,34-15.22,34-34-15.22-34-34-34h0Z"/><circle class="cls-1" cx="94" cy="24" r="3"/><path class="cls-1" d="M94,23c.55,0,1,.45,1,1s-.45,1-1,1-1-.45-1-1,.45-1,1-1M94,19c-2.76,0-5,2.24-5,5s2.24,5,5,5,5-2.24,5-5-2.24-5-5-5h0Z"/></svg>