<?xml version="1.0" encoding="UTF-8"?><svg id="Layer_1" xmlns="http://www.w3.org/2000/svg" viewBox="0 0 198 117"><defs><style>.cls-1{stroke-linejoin:round;}.cls-1,.cls-2,.cls-3{stroke-width:4px;}.cls-1,.cls-2,.cls-3,.cls-4,.cls-5,.cls-6{stroke-linecap:round;}.cls-1,.cls-2,.cls-3,.cls-6{stroke:#fff;}.cls-1,.cls-3,.cls-4,.cls-5,.cls-6{fill:none;}.cls-2{fill:#fff;}.cls-2,.cls-3,.cls-4,.cls-5,.cls-6{stroke-miterlimit:10;}.cls-4{stroke:#77cfe6;}.cls-4,.cls-5,.cls-6{stroke-width:3px;}.cls-5{stroke:#b0d236;}</style></defs><path class="cls-1" d="M169,20H18h151Z"/><line class="cls-3" x1="17" y1="107" x2="17" y2="20"/><line class="cls-2" x1="174" y1="107" x2="17" y2="107"/><line class="cls-3" x1="149" y1="107" x2="18" y2="107"/><line class="cls-6" x1="110.5" y1="34.5" x2="2.5" y2="35.5"/><line class="cls-6" x1="1.5" y1="85.5" x2="2.5" y2="35.5"/><line class="cls-6" x1="137.5" y1="85.5" x2="1.5" y2="85.5"/><line class="cls-6" x1="95.5" y1="7.5" x2="54.5" y2="7.5"/><line class="cls-6" x1="151" y1="34.5" x2="132.5" y2="34.5"/><line class="cls-6" x1="187" y1="86.5" x2="167" y2="86.5"/><line class="cls-5" x1="100.5" y1="1.5" x2="79.5" y2="1.5"/><line class="cls-5" x1="182.5" y1="12.5" x2="113.5" y2="12.5"/><line class="cls-5" x1="158.5" y1="27.5" x2="144.5" y2="27.5"/><line class="cls-5" x1="121.5" y1="27.5" x2="90.5" y2="27.5"/><line class="cls-5" x1="196.5" y1="78.5" x2="178.5" y2="78.5"/><line class="cls-5" x1="144.5" y1="76.5" x2="102.5" y2="76.5"/><line class="cls-5" x1="121" y1="98.5" x2="182" y2="98.5"/><line class="cls-4" x1="64.5" y1="14.5" x2="44.5" y2="14.5"/><line class="cls-4" x1="139.5" y1="41.5" x2="125.5" y2="41.5"/><line class="cls-4" x1="46.5" y1="40.5" x2="22.5" y2="40.5"/><line class="cls-4" x1="51.5" y1="93.5" x2="100.5" y2="93.5"/><line class="cls-4" x1="84.5" y1="115.5" x2="137.5" y2="115.5"/><circle class="cls-6" cx="73" cy="60" r="12.5"/><circle class="cls-6" cx="73.5" cy="60.5" r="25"/></svg>